<?xml version="1.0" encoding="UTF-8" standalone="no"?>
<!-- Created with Inkscape (http://www.inkscape.org/) -->

<svg
   xmlns:dc="http://purl.org/dc/elements/1.1/"
   xmlns:cc="http://creativecommons.org/ns#"
   xmlns:rdf="http://www.w3.org/1999/02/22-rdf-syntax-ns#"
   xmlns:svg="http://www.w3.org/2000/svg"
   xmlns="http://www.w3.org/2000/svg"
   xmlns:sodipodi="http://sodipodi.sourceforge.net/DTD/sodipodi-0.dtd"
   xmlns:inkscape="http://www.inkscape.org/namespaces/inkscape"
   width="210mm"
   height="297mm"
   viewBox="0 0 210 297"
   version="1.1"
   id="svg8"
   inkscape:version="0.92.4 5da689c313, 2019-01-14"
   sodipodi:docname="elm.svg">
  <defs
     id="defs2" />
  <sodipodi:namedview
     id="base"
     pagecolor="#ffffff"
     bordercolor="#666666"
     borderopacity="1.0"
     inkscape:pageopacity="0.0"
     inkscape:pageshadow="2"
     inkscape:zoom="0.7"
     inkscape:cx="364.36157"
     inkscape:cy="562.42138"
     inkscape:document-units="mm"
     inkscape:current-layer="layer1"
     showgrid="false"
     inkscape:window-width="1920"
     inkscape:window-height="1016"
     inkscape:window-x="0"
     inkscape:window-y="34"
     inkscape:window-maximized="1" />
  <metadata
     id="metadata5">
    <rdf:RDF>
      <cc:Work
         rdf:about="">
        <dc:format>image/svg+xml</dc:format>
        <dc:type
           rdf:resource="http://purl.org/dc/dcmitype/StillImage" />
        <dc:title></dc:title>
      </cc:Work>
    </rdf:RDF>
  </metadata>
  <g
     inkscape:label="Layer 1"
     inkscape:groupmode="layer"
     id="layer1">
    <path
       id="path3730"
       transform="scale(0.26458333)"
       style="fill:#000000;stroke:none;stroke-width:3.77952766"
       d="m 391.13281,269.44141 c -0.0467,0.0394 -0.0978,0.0815 -0.14453,0.12109 0.0507,-0.0326 0.10163,-0.065 0.15234,-0.0977 a 5.6692911,5.6692911 0 0 0 -0.008,-0.0234 z"
       inkscape:connector-curvature="0" />
    <path
       id="path3734"
       transform="scale(0.26458333)"
       style="fill:#000000;stroke:none;stroke-width:3.77952766"
       d="m 477.38477,409.94922 c -0.14059,0.0716 -0.28386,0.13635 -0.42579,0.20508 a 5.6692913,5.6692913 0 0 0 0.35352,0.21289 c 0.0212,-0.14318 0.0458,-0.28133 0.0723,-0.41797 z"
       inkscape:connector-curvature="0" />
    <path
       id="path3736"
       transform="scale(0.26458333)"
       style="fill:#000000;stroke:none;stroke-width:3.77952766"
       d="m 422.92383,505.2793 c -0.0266,0.0177 -0.0534,0.0351 -0.0801,0.0527 a 5.6692912,5.6692912 0 0 0 0.0137,0 5.6692912,5.6692912 0 0 0 0.0937,-0.006 c -0.009,-0.0154 -0.0179,-0.0315 -0.0273,-0.0469 z"
       inkscape:connector-curvature="0" />
    <path
       id="path3742"
       transform="scale(0.26458333)"
       style="fill:#000000;stroke:none;stroke-width:3.77952766"
       d="m 593.70508,558.83984 c -0.0271,0.0171 -0.0529,0.0358 -0.0801,0.0527 0.0119,0.0243 0.0158,0.0501 0.0293,0.0742 0.0578,0.10318 0.2919,0.36269 0.25,0.25195 -0.07,-0.1854 -0.13642,-0.28371 -0.19922,-0.37891 z"
       inkscape:connector-curvature="0" />
    <path
       id="path3870"
       d="m 18.902931,115.55217 c 6.169438,-2.33586 12.111495,-5.1857 18.004404,-8.13744 12.016086,-6.14091 23.561127,-13.128616 34.971886,-20.314803 7.197058,-4.703667 14.365459,-9.546468 20.789296,-15.289564 2.891753,-2.585307 3.497017,-3.360121 5.997223,-6.071814 1.49774,-1.754508 2.94663,-3.568991 4.09391,-5.577533 0.44585,-0.780547 0.77913,-1.508855 0.90168,-2.393331 -0.0292,-0.06194 -0.0193,-0.180404 -0.0875,-0.185822 -0.09,-0.0071 -0.14764,0.104174 -0.21725,0.161631 -0.16537,0.136496 -0.67954,0.514898 -0.4873,0.41992 1.23912,-0.612185 2.34072,-1.517483 3.64342,-1.979194 0.6962,-0.246753 -1.19456,0.869386 -1.78062,1.318969 -0.8711,0.66825 -1.72696,1.356143 -2.59044,2.034217 C 91.13839,69.016059 80.908148,79.356145 70.794125,89.765075 58.154659,103.14757 45.783888,116.91339 35.305539,132.08999 c -1.969653,2.8528 -3.782478,5.81075 -5.673717,8.71613 -4.277212,7.01458 -8.16117,14.28201 -11.180101,21.93245 -1.213084,3.07415 -2.146157,5.92158 -2.873106,9.11826 -0.219326,0.96447 -0.340302,1.94869 -0.510453,2.92303 -0.02097,0.89178 -0.309381,2.33035 0.38776,3.17508 0.562638,0.68176 1.649124,0.43567 2.317946,0.31164 2.177175,-0.40376 2.516772,-0.7059 4.694536,-1.62996 1.029038,-0.53787 2.092641,-1.01425 3.087113,-1.61363 0.229793,-0.13849 -0.97511,0.39769 -0.774346,0.21971 13.448228,-11.92265 -6.125859,6.54896 7.650062,-6.26746 3.307964,-3.07756 3.848618,-3.84787 6.808896,-7.19083 2.362142,-2.90533 4.552468,-5.95006 6.514946,-9.13947 0.569021,-0.92478 1.593469,-2.60914 1.946677,-3.72803 0.144537,-0.45786 0.152101,-0.94815 0.228153,-1.42222 -0.130492,-0.41234 -0.164835,-0.86867 -0.391475,-1.23703 -1.081944,-1.75852 -4.010427,-2.77127 -5.78414,-3.34465 -2.849682,-0.92121 -4.589447,-1.18811 -7.541517,-1.79151 -4.859478,-0.94938 -9.798571,-1.23532 -14.72063,-1.62919 1.836668,-1.09175 3.519774,-2.49791 5.510004,-3.27526 0.833462,-0.32553 1.78872,0.0556 2.683289,0.0751 1.473383,0.0321 2.946755,0.0835 4.420484,0.0796 3.700579,-0.01 9.461172,-0.18729 13.045926,-0.3978 2.421065,-0.14217 4.836682,-0.36553 7.255021,-0.54829 7.835291,-0.78371 15.696792,-1.48798 23.451984,-2.88616 0,0 -4.202187,3.15849 -4.202187,3.15849 v 0 c -7.588144,1.11049 -15.245318,1.66334 -22.875057,2.40378 -6.889025,0.52549 -13.770179,0.96684 -20.677269,1.17771 -1.547302,0.0472 -3.095766,0.046 -4.643279,0.0857 -0.968287,0.0249 -3.090596,1.05853 -2.903809,0.1081 0.305198,-1.55293 2.34051,-2.13098 3.510765,-3.19647 1.291554,0.34787 2.810209,0.36568 4.11688,0.51542 3.39756,0.38933 6.786933,0.8567 10.154277,1.4563 2.789987,0.56782 4.986729,0.9419 7.705365,1.77767 2.112719,0.64949 5.002041,1.55499 6.262669,3.60838 0.270037,0.43986 0.329401,0.97829 0.494102,1.46744 -0.07208,0.52754 -0.06088,1.07335 -0.216236,1.58263 -0.360651,1.18225 -1.47841,2.91783 -2.094037,3.88243 -2.063925,3.23385 -4.328613,6.3372 -6.743671,9.3174 -1.078267,1.22564 -2.117593,2.48666 -3.234804,3.6769 -2.276472,2.42528 -4.801875,4.80035 -7.350543,6.9374 -1.210553,1.01505 -2.409981,2.05469 -3.724801,2.93047 -5.543366,3.69236 -6.439355,4.0561 -11.059662,6.43173 -1.722133,0.69317 -4.673623,2.14078 -6.661551,1.50473 -1.8731526,-0.59934 -1.453064,-2.91787 -1.312149,-4.32198 0.219856,-1.01383 0.393536,-2.03879 0.659569,-3.0415 0.871054,-3.2831 1.916994,-6.20546 3.24108,-9.3626 3.241692,-7.72946 7.27797,-15.08994 11.661177,-22.2253 1.915027,-2.92323 3.754402,-5.89744 5.745079,-8.76968 10.47949,-15.12028 22.767348,-28.88867 35.306108,-42.307032 9.816833,-10.250135 19.758848,-20.409622 30.339096,-29.879506 0.02691,-0.02199 3.566617,-2.94304 4.076827,-3.270904 1.8947,-1.217549 3.82072,-2.38892 5.78549,-3.489838 0.22009,-0.123325 0.48765,-0.19273 0.73849,-0.165753 0.51748,0.05566 0.55078,0.397107 0.70342,0.763539 -0.16619,1.591302 -1.00944,2.881014 -1.91057,4.17721 -1.30281,1.873983 -1.87758,2.463668 -3.43025,4.318439 -2.58719,2.765838 -3.24955,3.589716 -6.219563,6.228475 -6.52838,5.800238 -13.786869,10.715537 -21.086879,15.475616 -4.765818,3.001291 -8.504666,5.400297 -13.359781,8.276598 -9.702405,5.74797 -19.484398,11.379766 -29.469852,16.623586 -1.700585,0.85893 -3.391019,1.73825 -5.101754,2.57678 -4.449401,2.18091 -9.008399,4.11689 -13.574271,6.03689 0,0 4.395661,-3.45658 4.395661,-3.45658 z"
       inkscape:connector-curvature="0"
       style="stroke-width:0.26458332" />
    <path
       id="path3872"
       d="m 108.06107,94.841276 c -4.52423,11.983174 -10.45211,23.356794 -16.064163,34.850044 -5.271558,10.98472 -10.453645,22.01986 -15.099525,33.28658 -2.100037,5.09281 -2.575477,6.43456 -4.420835,11.29173 -0.919977,2.79279 -2.146594,5.53687 -2.72437,8.43811 -0.07147,0.35889 -0.133683,0.72796 -0.105068,1.09279 0.01167,0.14866 0.07217,0.38722 0.221276,0.38879 0.231841,0.002 0.388231,-0.25358 0.582348,-0.38038 0.458107,-0.29936 1.921219,-0.91777 1.374322,-0.8981 -0.738989,0.0266 -2.536735,1.44832 -2.018061,0.92126 1.028205,-1.04482 2.399546,-1.68453 3.598793,-2.52754 1.495415,-1.05121 2.993271,-2.09895 4.485198,-3.1551 9.578989,-6.78107 0.325134,-0.29231 10.004632,-7.05662 4.849262,-3.26502 9.667467,-6.57534 14.454863,-9.93028 0,0 4.81565,-1.89419 4.81565,-1.89419 v 0 c -4.95193,3.39394 -9.91768,6.76757 -14.907116,10.10621 -7.317573,5.11125 -2.731913,1.87473 -9.895456,7.01003 -1.439453,1.0319 -2.883728,2.05706 -4.322482,3.08993 -1.138002,0.81695 -2.236462,1.69108 -3.407767,2.45952 -2.300193,1.50907 -4.643803,2.95195 -7.00146,4.36956 -0.519912,0.31261 -1.083903,0.54525 -1.625854,0.81787 -0.329644,-0.0628 -0.714081,0.004 -0.988936,-0.1885 -0.533395,-0.37364 -0.176437,-1.61793 -0.09771,-1.93036 0.756288,-3.0014 2.141715,-5.82236 3.197709,-8.71518 6.253663,-15.1536 12.969467,-30.10783 20.089569,-44.87505 5.356828,-11.21143 11.12485,-22.3233 14.856413,-34.214176 0,0 4.99803,-2.356948 4.99803,-2.356948 z"
       inkscape:connector-curvature="0"
       style="stroke-width:0.26458332" />
    <path
       id="path3874"
       d="m 105.22417,172.67338 c 6.10678,-9.72092 12.09659,-19.51605 18.12153,-29.28817 8.58382,-14.10921 17.60215,-27.95025 26.05501,-42.13889 0.77641,-1.34556 1.55399,-2.690442 2.32922,-4.036685 0.38865,-0.674925 2.10412,-3.745796 2.7907,-4.711051 1.18003,-1.658996 4.81756,-2.44973 5.8906,-2.296507 0.79418,0.113403 -0.10723,1.60089 -0.16085,2.401334 -0.23033,1.298091 -0.43695,2.600611 -0.69098,3.89427 -0.35337,1.799468 -0.75472,3.589179 -1.131,5.383999 -1.59382,7.60246 -3.26521,15.18967 -4.84685,22.79438 -0.61617,2.96261 -1.19024,5.93382 -1.78535,8.90074 -2.44971,12.67615 -4.14803,25.48692 -5.12463,38.35809 -0.0154,0.64639 -0.19176,3.0065 0.12508,3.89567 0.0714,0.20038 0.27853,0.46633 0.48493,0.41485 0.37339,-0.0931 1.25562,-0.80624 0.87436,-0.75391 -2.90512,0.39879 -4.90907,3.24248 0.21316,-1.92856 8.61761,-9.27871 16.32408,-19.4098 23.006,-30.16729 1.55185,-2.49839 2.99017,-5.06553 4.48525,-7.5983 4.37199,-8.16548 8.38426,-16.66854 10.43776,-25.7527 0.8865,-3.92165 0.88236,-5.33436 1.21206,-9.20931 0.0383,-2.859482 0.13769,-5.792616 -0.50945,-8.605544 -0.093,-0.404334 -0.21346,-0.81004 -0.41111,-1.17484 -0.0675,-0.124619 -0.4793,-0.171167 -0.35345,-0.236355 1.47871,-0.765942 3.0634,-1.30715 4.59509,-1.960724 -0.1239,0.56913 -0.29084,1.130567 -0.3717,1.707388 -0.28879,2.060189 -0.45512,5.529149 -0.53525,7.434845 -0.16869,4.01156 -0.24499,7.6884 -0.21741,11.72252 0.0156,2.28773 0.0899,4.57469 0.13478,6.86204 0.32315,11.24447 1.79274,22.40839 3.7417,33.4741 1.01018,5.07481 1.87288,10.19439 3.42539,15.13862 0.6979,1.66911 1.13036,3.4705 1.96876,5.07926 0.49372,0.87316 1.26189,1.4615 2.08323,2.00213 1.35152,0.97 2.68377,1.95616 4.08445,2.85616 1.66186,1.09071 3.39254,2.08152 5.30436,2.64826 1.51265,0.34847 3.07428,0.47466 4.62195,0.37723 1.84942,-0.23836 3.64033,-0.80125 5.36396,-1.49807 0.38502,-0.14478 1.19454,-0.43649 1.57575,-0.62724 0.22389,-0.11204 0.86606,-0.50259 0.64685,-0.38167 -5.72721,3.15915 -4.63831,3.06394 -2.73649,0.83306 0.27858,-0.34412 0.55717,-0.68824 0.83576,-1.03236 0,0 5.02049,-2.14609 5.02049,-2.14609 v 0 c -0.26734,0.341 -0.53468,0.682 -0.80202,1.023 -0.0844,0.10946 -1.07841,1.43475 -1.27293,1.5629 -2.53173,1.6679 -4.82654,3.20095 -7.61028,4.17493 -1.77355,0.65243 -3.60195,1.22141 -5.4957,1.37034 -1.58886,0.0303 -3.1831,-0.11128 -4.71742,-0.54656 -1.91976,-0.65402 -3.6661,-1.6913 -5.37239,-2.77694 -1.40813,-0.90477 -2.75886,-1.88408 -4.13604,-2.83331 -0.89752,-0.60213 -1.72626,-1.26913 -2.24919,-2.23899 -0.81503,-1.66786 -1.16135,-3.53721 -1.84637,-5.25812 -1.43811,-5.03731 -2.22044,-10.2261 -3.11636,-15.3803 -1.72406,-11.1751 -2.98366,-22.4253 -3.38999,-33.73212 -0.19444,-6.14679 -0.33485,-12.27689 -0.2888,-18.42689 0.0157,-2.098409 0.0338,-5.109627 0.1437,-7.305589 0.03,-0.598818 0.0969,-1.195213 0.14533,-1.792819 1.74495,-1.079304 3.38746,-2.345206 5.23484,-3.237913 0.19435,-0.09392 0.30094,0.32393 0.37868,0.525299 0.16244,0.420769 0.25713,0.867084 0.33064,1.312087 0.48368,2.927847 0.36584,5.923709 0.24741,8.872159 -0.40025,3.983386 -0.41248,5.358236 -1.37754,9.387146 -2.20326,9.19818 -6.37672,17.77617 -10.82999,26.06205 -1.49786,2.5406 -2.94435,5.11219 -4.49357,7.6218 -6.53901,10.59259 -13.98478,20.63146 -22.25017,29.93924 -3.76481,4.05896 -2.93703,3.60134 -9.14775,7.26297 -0.38613,0.22765 -0.89741,0.3445 -1.32712,0.21693 -1.15677,-0.34339 -0.42846,-4.4168 -0.43254,-4.90239 1.55977,-12.98605 3.48049,-25.92959 5.89356,-38.78604 1.60622,-8.29674 3.33331,-16.5693 4.9054,-24.8725 0.33622,-1.77581 1.77503,-9.60339 2.12057,-11.825338 0.19278,-1.239695 0.32192,-2.488454 0.48288,-3.732681 0.13796,-3.945811 -0.50349,-1.67531 4.74097,-5.179317 0.28058,-0.187462 -0.6214,0.303247 -0.84738,0.553845 -0.50193,0.556609 -0.89324,1.204841 -1.30391,1.831811 -0.73134,1.116517 -3.96197,6.449477 -4.38403,7.142741 -8.77739,14.128609 -17.93338,28.021609 -26.44864,42.313479 -5.75024,9.53425 -11.51452,19.06177 -16.98155,28.76256 0,0 -5.05596,2.25785 -5.05596,2.25785 z"
       inkscape:connector-curvature="0"
       style="stroke-width:0.26458332" />
  </g>
  <g
     inkscape:groupmode="layer"
     id="layer2"
     inkscape:label="Layer 2" />
</svg>
